<svg width="100" height="100" viewBox="0 0 100 100" xmlns="http://www.w3.org/2000/svg">
  <!-- MeepleAI Logo - Monochrome (B&W for print/merchandise) -->

  <!-- Authentic Meeple Shape -->
  <path d="
    M 50 10
    A 10 10 0 1 1 50 30
    A 10 10 0 1 1 50 10
    M 50 30
    L 45 35
    L 35 35
    L 25 40
    L 20 40
    L 20 48
    L 25 48
    L 30 45
    L 35 45
    L 35 70
    L 38 85
    L 38 90
    L 62 90
    L 62 85
    L 65 70
    L 65 45
    L 70 45
    L 75 48
    L 80 48
    L 80 40
    L 75 40
    L 65 35
    L 55 35
    L 50 30
    Z
  " fill="#1e293b"/>

  <!-- AI Accent Dot -->
  <circle cx="50" cy="65" r="3" fill="#10B981"/>
</svg>